<svg xmlns="http://www.w3.org/2000/svg" width="1132" height="804" viewBox="0 0 1132 804" xmlns:xlink="http://www.w3.org/1999/xlink" xmlns:ev="http://www.w3.org/2001/xml-events"><defs/><g transform="translate(5.5,5.5)" id="page1"><rect x="0" width="1123" height="794" y="0" fill="#ffffff"/><g transform="translate(359.000000,140.000000)" id="shape1"><path stroke-width="1" d="M.0,30.0C.0,13.4,22.4,.0,50.0,.0C77.6,.0,100.0,13.4,100.0,30.0C100.0,46.6,77.6,60.0,50.0,60.0C22.4,60.0,.0,46.6,.0,30.0z" fill-rule="nonzero" fill="#ffffff" stroke="#101843"/><text style="fill:#191919;font-family:Arial;font-size:12.00pt" xml:space="preserve"><tspan x="28.8" y="35.7">USER</tspan></text></g><g transform="translate(566.500000,133.500000)" id="shape2"><path stroke-width="1" d="M121.0,66.0L121.0,7.0C121.0,3.1,117.9,.0,114.0,.0L7.0,.0C3.1,.0,.0,3.1,.0,7.0L.0,66.0C.0,69.9,3.1,73.0,7.0,73.0L114.0,73.0C117.9,73.0,121.0,69.9,121.0,66.0z" fill-rule="nonzero" fill="#ffffff" stroke="#101843"/><text style="fill:#191919;font-family:Arial;font-size:12.00pt" xml:space="preserve"><tspan x="39.3" y="32.7">USER </tspan><tspan x="4.5" y="51.9">MANAGEMENT</tspan></text></g><g transform="translate(459.000000,170.000000)" id="shape3"><path stroke-width="1" d="M.0,.0L101.0,.0" stroke="#191919" fill="none"/><path stroke-width="1" d="M101.0,-3.0L107.0,.0L101.0,3.0L101.0,-3.0" stroke-linecap="round" fill="#191919" stroke="#191919"/></g><g transform="translate(845.000000,140.000000)" id="shape4"><path stroke-width="1" d="M.0,30.0C.0,13.4,22.4,.0,50.0,.0C77.6,.0,100.0,13.4,100.0,30.0C100.0,46.6,77.6,60.0,50.0,60.0C22.4,60.0,.0,46.6,.0,30.0z" fill-rule="nonzero" fill="#ffffff" stroke="#101843"/><text style="fill:#191919;font-family:Arial;font-size:12.00pt" xml:space="preserve"><tspan x="24.8" y="35.7">ADMIN</tspan></text></g><g transform="translate(559.000000,303.500000)" id="shape5"><path stroke-width="1" d="M136.0,66.0L136.0,7.0C136.0,3.1,132.9,.0,129.0,.0L7.0,.0C3.1,.0,.0,3.1,.0,7.0L.0,66.0C.0,69.9,3.1,73.0,7.0,73.0L129.0,73.0C132.9,73.0,136.0,69.9,136.0,66.0z" fill-rule="nonzero" fill="#ffffff" stroke="#101843"/><text style="fill:#191919;font-family:Arial;font-size:12.00pt" xml:space="preserve"><tspan x="49.2" y="32.7">QUIZ </tspan><tspan x="8.8" y="51.9">PARTICIPATION</tspan></text></g><g transform="translate(827.000000,398.500000)" id="shape6"><path stroke-width="1" d="M136.0,66.0L136.0,7.0C136.0,3.1,132.9,.0,129.0,.0L7.0,.0C3.1,.0,.0,3.1,.0,7.0L.0,66.0C.0,69.9,3.1,73.0,7.0,73.0L129.0,73.0C132.9,73.0,136.0,69.9,136.0,66.0z" fill-rule="nonzero" fill="#ffffff" stroke="#101843"/><text style="fill:#191919;font-family:Arial;font-size:12.00pt" xml:space="preserve"><tspan x="35.6" y="23.2">RESULT/</tspan><tspan x="26.0" y="42.4">FEEDBACK </tspan><tspan x="12.0" y="61.6">MANAGEMENT</tspan></text></g><g transform="translate(895.000000,200.000000)" id="shape7"><path stroke-width="1" d="M.0,.0L.0,192.5" stroke="#191919" fill="none"/><path stroke-width="1" d="M3.0,192.5L.0,198.5L-3.0,192.5L3.0,192.5" stroke-linecap="round" fill="#191919" stroke="#191919"/></g><g transform="translate(695.000000,340.000000)" id="shape8"><path stroke-width="1" d="M.0,.0L174.0,.0L174.0,52.0" stroke="#191919" fill="none"/><path stroke-width="1" d="M177.0,52.0L174.0,58.0L171.0,52.0L177.0,52.0" stroke-linecap="round" fill="#191919" stroke="#191919"/></g><g transform="translate(409.000000,338.667280)" id="shape9"><path stroke-width="1" d="" stroke="#191919" fill="none"/></g><g transform="translate(811.500000,540.875000)" id="shape10"><path d="M.0,16.7L.0,85.3L.0,85.3C.0,94.5,37.4,102.0,83.5,102.0C129.6,102.0,167.0,94.5,167.0,85.3L167.0,16.7L167.0,16.7C167.0,7.5,129.6,.0,83.5,.0C37.4,.0,.0,7.5,.0,16.7z" fill-rule="nonzero" fill="#ffffff"/><path stroke-width="1" d="M.0,16.7L.0,85.3L.0,85.3C.0,94.5,37.4,102.0,83.5,102.0C129.6,102.0,167.0,94.5,167.0,85.3L167.0,16.7L167.0,16.7C167.0,7.5,129.6,.0,83.5,.0C37.4,.0,.0,7.5,.0,16.7zM167.0,16.7C167.0,25.9,129.6,33.4,83.5,33.4C37.4,33.4,.0,25.9,.0,16.7" stroke="#101843" fill="none"/><text style="fill:#191919;font-family:Arial;font-size:12.00pt" xml:space="preserve"><tspan x="23.5" y="50.2">FEEDBACK AND </tspan><tspan x="25.1" y="69.4">SUBSCRIPTION </tspan><tspan x="42.7" y="88.6">DATABASE</tspan></text></g><g transform="translate(543.500000,541.125000)" id="shape11"><path d="M.0,16.7L.0,85.0L.0,85.1C.0,94.3,37.4,101.8,83.5,101.8C129.6,101.8,167.0,94.3,167.0,85.0L167.0,16.7L167.0,16.7C167.0,7.5,129.6,.0,83.5,.0C37.4,.0,.0,7.5,.0,16.7z" fill-rule="nonzero" fill="#ffffff"/><path stroke-width="1" d="M.0,16.7L.0,85.0L.0,85.1C.0,94.3,37.4,101.8,83.5,101.8C129.6,101.8,167.0,94.3,167.0,85.0L167.0,16.7L167.0,16.7C167.0,7.5,129.6,.0,83.5,.0C37.4,.0,.0,7.5,.0,16.7zM167.0,16.7C167.0,25.9,129.6,33.4,83.5,33.4C37.4,33.4,.0,25.9,.0,16.7" stroke="#101843" fill="none"/><text style="fill:#191919;font-family:Arial;font-size:12.00pt" xml:space="preserve"><tspan x="19.1" y="69.1">USER DATABASE</tspan></text></g><g transform="translate(409.000000,200.000000)" id="shape12"><path stroke-width="1" d="M.0,.0L.0,139.0L144.0,139.0" stroke="#191919" fill="none"/><path stroke-width="1" d="M144.0,136.0L150.0,139.0L144.0,142.0L144.0,136.0" stroke-linecap="round" fill="#191919" stroke="#191919"/></g><g transform="translate(409.000000,200.000000)" id="shape13"><path stroke-width="1" d="M.0,.0L.0,391.0L128.0,391.0" stroke="#191919" fill="none"/><path stroke-width="1" d="M128.0,388.0L134.0,391.0L128.0,394.0L128.0,388.0" stroke-linecap="round" fill="#191919" stroke="#191919"/><rect x="-90.2" width="182.4" height="19.2" y="200.6" fill="#ffffff"/><rect x="-19.0" width="40.0" height="19.2" y="219.8" fill="#ffffff"/><text style="fill:#191919;font-family:Arial;font-size:12.00pt" xml:space="preserve"><tspan x="-90.2" y="216.6">USER LOGIN/REGISTER</tspan><tspan x="-19.0" y="235.8">DATA</tspan></text></g><g transform="translate(895.000000,471.500000)" id="shape14"><path stroke-width="1" d="M.0,.0L.0,63.0" stroke="#191919" fill="none"/><path stroke-width="1" d="M3.0,63.0L.0,69.0L-3.0,63.0L3.0,63.0" stroke-linecap="round" fill="#191919" stroke="#191919"/></g><g transform="translate(627.000000,376.500000)" id="shape15"><path stroke-width="1" d="M.0,.0L.0,159.0" stroke="#191919" fill="none"/><path stroke-width="1" d="M3.0,159.0L.0,165.0L-3.0,159.0L3.0,159.0" stroke-linecap="round" fill="#191919" stroke="#191919"/><rect x="-42.6" width="87.2" height="19.2" y="52.3" fill="#ffffff"/><text style="fill:#191919;font-family:Arial;font-size:12.00pt" xml:space="preserve"><tspan x="-42.6" y="68.3">USER DATA</tspan></text></g><g transform="translate(696.746575,113.000000)" id="shape16"><text style="fill:#191919;font-family:Arial;font-size:12.00pt" xml:space="preserve"><tspan x="17.4" y="23.2">USER LOGIN</tspan><tspan x="9.8" y="42.4">MANAGEMENT</tspan></text></g><g transform="translate(627.000000,206.500000)" id="shape17"><path stroke-width="1" d="M.0,.0L.0,91.0" stroke="#191919" fill="none"/><path stroke-width="1" d="M3.0,91.0L.0,97.0L-3.0,91.0L3.0,91.0" stroke-linecap="round" fill="#191919" stroke="#191919"/></g><g transform="translate(845.000000,170.000000)" id="shape18"><path stroke-width="1" d="M.0,.0L-152.0,.0" stroke="#191919" fill="none"/><path stroke-width="1" d="M-152.0,3.0L-158.0,.0L-152.0,-3.0L-152.0,3.0" stroke-linecap="round" fill="#191919" stroke="#191919"/></g><g transform="translate(404.318666,304.673923)" id="shape19"><text style="fill:#191919;font-family:Arial;font-size:12.00pt" xml:space="preserve"><tspan x="36.4" y="20.7">USER </tspan></text></g><g transform="translate(566.500000,227.000000)" id="shape20"><text style="fill:#191919;font-family:Arial;font-size:12.00pt" xml:space="preserve"><tspan x="16.4" y="20.7">USER DATA</tspan></text></g><g transform="translate(708.253425,294.000000)" id="shape21"><text style="fill:#191919;font-family:Arial;font-size:12.00pt" xml:space="preserve"><tspan x="38.8" y="23.2">USER </tspan><tspan x="18.0" y="42.4">FEEDBACK</tspan></text></g></g></svg>